<svg xmlns="http://www.w3.org/2000/svg" viewBox="0 0 640 512"><!--! Font Awesome Pro 6.2.0 by @fontawesome - https://fontawesome.com License - https://fontawesome.com/license (Commercial License) Copyright 2022 Fonticons, Inc.--><path d="M171 96h53v96H111l31-76c5-12 16-20 29-20zm101 96V96h81c10 0 19 4 25 12l67 84H272zm256 1L428 68a96 96 0 0 0-75-36H171c-39 0-74 24-89 60L41 196c-24 10-41 33-41 60v112c0 18 14 32 32 32h33a96 96 0 0 0 190 0h130a96 96 0 0 0 190 0h33c18 0 32-14 32-32v-48c0-65-49-119-112-127zm-3 207a48 48 0 0 1-93-16 48 48 0 1 1 93 16zm-365 32a48 48 0 0 1-48-48 48 48 0 1 1 48 48z"/></svg>